# xmcd CD database file
#
# Track frame offsets:
#	150
#	33738
#	56700
#	81509
#	102109
#	121268
#	142052
#	166709
#	197569
#	224670
#	249435
#	275685
#
# Disc length: 3919 seconds
#
# Revision: 1
# Processed by: cddbd v1.5.1PL2 Copyright (c) Steve Scherf et al.
# Submitted via: CDex 1.51
#
DISCID=b50f4d0c
DTITLE=New Orleans Jazz Vipers - Hope You're Comin' Back
DYEAR=2006
DGENRE=Jazz
TTITLE0=I Hope You're Comin' Back to New Orleans
TTITLE1=Zonky
TTITLE2=Gettin' Some Fun Out Of Life
TTITLE3=What Is This Thing Called Love
TTITLE4=Love Is Just Around The Corner
TTITLE5=Indian Summer
TTITLE6=How Deep Is The Ocean
TTITLE7=Night and Day
TTITLE8=Bread and Gravy
TTITLE9=I Would Do Anything For You
TTITLE10=I Want You Tonight
TTITLE11=Get Rhythm In Your Feet
EXTD=YEAR: 2006
EXTT0=
EXTT1=
EXTT2=
EXTT3=
EXTT4=
EXTT5=
EXTT6=
EXTT7=
EXTT8=
EXTT9=
EXTT10=
EXTT11=
PLAYORDER=
